<mxfile host="app.diagrams.net" modified="2021-12-17T06:31:22.623Z" agent="5.0 (Windows)" etag="6nxKMKTF4fNww0OkPkI3" version="15.9.6" type="github">
  <diagram id="veNuf-kEQshDakvxtgUD" name="Page-1">
    <mxGraphModel dx="2162" dy="1861" grid="1" gridSize="10" guides="1" tooltips="1" connect="1" arrows="1" fold="1" page="1" pageScale="1" pageWidth="827" pageHeight="1169" math="0" shadow="0">
      <root>
        <mxCell id="0" />
        <mxCell id="1" parent="0" />
        <mxCell id="Y2NKu34Y8KuRdSmvvcmi-6" style="edgeStyle=orthogonalEdgeStyle;rounded=0;orthogonalLoop=1;jettySize=auto;html=1;exitX=0.5;exitY=0.5;exitDx=0;exitDy=0;exitPerimeter=0;" parent="1" source="Y2NKu34Y8KuRdSmvvcmi-1" target="Y2NKu34Y8KuRdSmvvcmi-7" edge="1">
          <mxGeometry relative="1" as="geometry">
            <mxPoint x="101" y="180" as="targetPoint" />
            <Array as="points">
              <mxPoint x="101" y="240" />
            </Array>
          </mxGeometry>
        </mxCell>
        <mxCell id="Y2NKu34Y8KuRdSmvvcmi-1" value="SmartCard Owner" style="shape=umlActor;html=1;verticalLabelPosition=bottom;verticalAlign=top;align=center;" parent="1" vertex="1">
          <mxGeometry x="166" y="210" width="30" height="60" as="geometry" />
        </mxCell>
        <mxCell id="Y2NKu34Y8KuRdSmvvcmi-7" value="Recharge SmartCard" style="ellipse;whiteSpace=wrap;html=1;" parent="1" vertex="1">
          <mxGeometry x="-29" y="210" width="130" height="70" as="geometry" />
        </mxCell>
        <mxCell id="QPhN8B5RvdQCoUJKxiqJ-10" style="edgeStyle=orthogonalEdgeStyle;rounded=0;orthogonalLoop=1;jettySize=auto;html=1;exitX=0.5;exitY=0.5;exitDx=0;exitDy=0;exitPerimeter=0;entryX=0;entryY=0.5;entryDx=0;entryDy=0;" edge="1" parent="1" source="Y2NKu34Y8KuRdSmvvcmi-18" target="Y2NKu34Y8KuRdSmvvcmi-21">
          <mxGeometry relative="1" as="geometry" />
        </mxCell>
        <mxCell id="QPhN8B5RvdQCoUJKxiqJ-11" style="edgeStyle=orthogonalEdgeStyle;rounded=0;orthogonalLoop=1;jettySize=auto;html=1;exitX=0.5;exitY=0.5;exitDx=0;exitDy=0;exitPerimeter=0;entryX=0;entryY=0.5;entryDx=0;entryDy=0;" edge="1" parent="1" source="Y2NKu34Y8KuRdSmvvcmi-18" target="Y2NKu34Y8KuRdSmvvcmi-23">
          <mxGeometry relative="1" as="geometry" />
        </mxCell>
        <mxCell id="QPhN8B5RvdQCoUJKxiqJ-12" style="edgeStyle=orthogonalEdgeStyle;rounded=0;orthogonalLoop=1;jettySize=auto;html=1;exitX=0.5;exitY=0.5;exitDx=0;exitDy=0;exitPerimeter=0;entryX=0;entryY=0.5;entryDx=0;entryDy=0;" edge="1" parent="1" source="Y2NKu34Y8KuRdSmvvcmi-18" target="Y2NKu34Y8KuRdSmvvcmi-25">
          <mxGeometry relative="1" as="geometry" />
        </mxCell>
        <mxCell id="Y2NKu34Y8KuRdSmvvcmi-18" value="User" style="shape=umlActor;html=1;verticalLabelPosition=bottom;verticalAlign=top;align=center;" parent="1" vertex="1">
          <mxGeometry x="360" y="-50" width="40" height="80" as="geometry" />
        </mxCell>
        <mxCell id="Y2NKu34Y8KuRdSmvvcmi-21" value="View Timetable" style="ellipse;whiteSpace=wrap;html=1;" parent="1" vertex="1">
          <mxGeometry x="500" y="-111" width="140" height="70" as="geometry" />
        </mxCell>
        <mxCell id="Y2NKu34Y8KuRdSmvvcmi-23" value="View Fare Details" style="ellipse;whiteSpace=wrap;html=1;" parent="1" vertex="1">
          <mxGeometry x="500" y="-19" width="140" height="70" as="geometry" />
        </mxCell>
        <mxCell id="Y2NKu34Y8KuRdSmvvcmi-25" value="View Route Map" style="ellipse;whiteSpace=wrap;html=1;" parent="1" vertex="1">
          <mxGeometry x="500" y="-200" width="140" height="70" as="geometry" />
        </mxCell>
        <mxCell id="Y2NKu34Y8KuRdSmvvcmi-28" value="" style="edgeStyle=none;html=1;endArrow=block;endFill=0;endSize=12;verticalAlign=bottom;entryX=0.5;entryY=0.5;entryDx=0;entryDy=0;entryPerimeter=0;exitX=0.5;exitY=0;exitDx=0;exitDy=0;exitPerimeter=0;" parent="1" source="Y2NKu34Y8KuRdSmvvcmi-31" target="Y2NKu34Y8KuRdSmvvcmi-18" edge="1">
          <mxGeometry width="160" relative="1" as="geometry">
            <mxPoint x="260" y="100" as="sourcePoint" />
            <mxPoint x="490" y="-10" as="targetPoint" />
          </mxGeometry>
        </mxCell>
        <mxCell id="Y2NKu34Y8KuRdSmvvcmi-29" value="" style="edgeStyle=none;html=1;endArrow=block;endFill=0;endSize=12;verticalAlign=bottom;entryX=0.5;entryY=0.5;entryDx=0;entryDy=0;entryPerimeter=0;exitX=0.5;exitY=0;exitDx=0;exitDy=0;exitPerimeter=0;" parent="1" source="Y2NKu34Y8KuRdSmvvcmi-30" target="Y2NKu34Y8KuRdSmvvcmi-18" edge="1">
          <mxGeometry width="160" relative="1" as="geometry">
            <mxPoint x="500" y="100" as="sourcePoint" />
            <mxPoint x="410" as="targetPoint" />
          </mxGeometry>
        </mxCell>
        <mxCell id="Y2NKu34Y8KuRdSmvvcmi-45" style="edgeStyle=orthogonalEdgeStyle;rounded=0;orthogonalLoop=1;jettySize=auto;html=1;exitX=0.5;exitY=0.5;exitDx=0;exitDy=0;exitPerimeter=0;" parent="1" source="Y2NKu34Y8KuRdSmvvcmi-30" target="Y2NKu34Y8KuRdSmvvcmi-46" edge="1">
          <mxGeometry relative="1" as="geometry">
            <mxPoint x="648.9999999999995" y="148" as="targetPoint" />
            <Array as="points">
              <mxPoint x="560" y="139" />
              <mxPoint x="560" y="139" />
            </Array>
          </mxGeometry>
        </mxCell>
        <mxCell id="Y2NKu34Y8KuRdSmvvcmi-30" value="Unregistered User" style="shape=umlActor;html=1;verticalLabelPosition=bottom;verticalAlign=top;align=center;" parent="1" vertex="1">
          <mxGeometry x="484" y="109" width="30" height="60" as="geometry" />
        </mxCell>
        <mxCell id="Y2NKu34Y8KuRdSmvvcmi-43" style="edgeStyle=orthogonalEdgeStyle;rounded=0;orthogonalLoop=1;jettySize=auto;html=1;exitX=0.5;exitY=0.5;exitDx=0;exitDy=0;exitPerimeter=0;" parent="1" source="Y2NKu34Y8KuRdSmvvcmi-31" target="Y2NKu34Y8KuRdSmvvcmi-44" edge="1">
          <mxGeometry relative="1" as="geometry">
            <mxPoint x="351" y="240" as="targetPoint" />
            <Array as="points">
              <mxPoint x="191" y="140" />
              <mxPoint x="191" y="140" />
            </Array>
          </mxGeometry>
        </mxCell>
        <mxCell id="Y2NKu34Y8KuRdSmvvcmi-31" value="&lt;div&gt;Registered&lt;/div&gt;&lt;div&gt;User&lt;/div&gt;" style="shape=umlActor;html=1;verticalLabelPosition=bottom;verticalAlign=top;align=center;" parent="1" vertex="1">
          <mxGeometry x="280" y="110" width="30" height="60" as="geometry" />
        </mxCell>
        <mxCell id="Y2NKu34Y8KuRdSmvvcmi-34" value="" style="edgeStyle=none;html=1;endArrow=block;endFill=0;endSize=12;verticalAlign=bottom;entryX=0.5;entryY=0.5;entryDx=0;entryDy=0;entryPerimeter=0;exitX=0.75;exitY=0.1;exitDx=0;exitDy=0;exitPerimeter=0;" parent="1" source="Y2NKu34Y8KuRdSmvvcmi-1" target="Y2NKu34Y8KuRdSmvvcmi-31" edge="1">
          <mxGeometry width="160" relative="1" as="geometry">
            <mxPoint x="181" y="200" as="sourcePoint" />
            <mxPoint x="171" y="180" as="targetPoint" />
          </mxGeometry>
        </mxCell>
        <mxCell id="Y2NKu34Y8KuRdSmvvcmi-44" value="Reserve Tickets" style="ellipse;whiteSpace=wrap;html=1;" parent="1" vertex="1">
          <mxGeometry x="1" y="100" width="140" height="70" as="geometry" />
        </mxCell>
        <mxCell id="Y2NKu34Y8KuRdSmvvcmi-46" value="&lt;div&gt;Register&lt;/div&gt;" style="ellipse;whiteSpace=wrap;html=1;" parent="1" vertex="1">
          <mxGeometry x="555" y="104" width="140" height="70" as="geometry" />
        </mxCell>
        <mxCell id="QPhN8B5RvdQCoUJKxiqJ-1" style="edgeStyle=orthogonalEdgeStyle;rounded=0;orthogonalLoop=1;jettySize=auto;html=1;exitX=0.5;exitY=0.5;exitDx=0;exitDy=0;exitPerimeter=0;" edge="1" parent="1" source="Y2NKu34Y8KuRdSmvvcmi-48" target="Y2NKu34Y8KuRdSmvvcmi-49">
          <mxGeometry relative="1" as="geometry" />
        </mxCell>
        <mxCell id="Y2NKu34Y8KuRdSmvvcmi-48" value="Regular User" style="shape=umlActor;html=1;verticalLabelPosition=bottom;verticalAlign=top;align=center;" parent="1" vertex="1">
          <mxGeometry x="381" y="210" width="30" height="60" as="geometry" />
        </mxCell>
        <mxCell id="Y2NKu34Y8KuRdSmvvcmi-49" value="Request SmartCard" style="ellipse;whiteSpace=wrap;html=1;" parent="1" vertex="1">
          <mxGeometry x="241" y="340" width="130" height="70" as="geometry" />
        </mxCell>
        <mxCell id="Y2NKu34Y8KuRdSmvvcmi-50" value="" style="edgeStyle=none;html=1;endArrow=block;endFill=0;endSize=12;verticalAlign=bottom;exitX=0.338;exitY=0;exitDx=0;exitDy=0;exitPerimeter=0;entryX=0.5;entryY=0.5;entryDx=0;entryDy=0;entryPerimeter=0;" parent="1" source="Y2NKu34Y8KuRdSmvvcmi-48" target="Y2NKu34Y8KuRdSmvvcmi-31" edge="1">
          <mxGeometry width="160" relative="1" as="geometry">
            <mxPoint x="541" y="210" as="sourcePoint" />
            <mxPoint x="655" y="150" as="targetPoint" />
          </mxGeometry>
        </mxCell>
        <mxCell id="Y2NKu34Y8KuRdSmvvcmi-65" style="edgeStyle=orthogonalEdgeStyle;rounded=0;orthogonalLoop=1;jettySize=auto;html=1;exitX=0.5;exitY=0.5;exitDx=0;exitDy=0;exitPerimeter=0;entryX=0.5;entryY=0;entryDx=0;entryDy=0;" parent="1" source="Y2NKu34Y8KuRdSmvvcmi-51" target="Y2NKu34Y8KuRdSmvvcmi-61" edge="1">
          <mxGeometry relative="1" as="geometry">
            <Array as="points">
              <mxPoint x="149" y="-81" />
            </Array>
          </mxGeometry>
        </mxCell>
        <mxCell id="Y2NKu34Y8KuRdSmvvcmi-66" style="edgeStyle=orthogonalEdgeStyle;rounded=0;orthogonalLoop=1;jettySize=auto;html=1;exitX=0.5;exitY=0.5;exitDx=0;exitDy=0;exitPerimeter=0;entryX=0.5;entryY=0;entryDx=0;entryDy=0;" parent="1" source="Y2NKu34Y8KuRdSmvvcmi-51" target="Y2NKu34Y8KuRdSmvvcmi-56" edge="1">
          <mxGeometry relative="1" as="geometry">
            <Array as="points">
              <mxPoint x="-31" y="-81" />
            </Array>
          </mxGeometry>
        </mxCell>
        <mxCell id="Y2NKu34Y8KuRdSmvvcmi-51" value="&lt;div&gt;Admin&lt;/div&gt;&lt;div&gt;&lt;br&gt;&lt;/div&gt;" style="shape=umlActor;html=1;verticalLabelPosition=bottom;verticalAlign=top;align=center;" parent="1" vertex="1">
          <mxGeometry x="39" y="-121" width="40" height="80" as="geometry" />
        </mxCell>
        <mxCell id="Y2NKu34Y8KuRdSmvvcmi-56" value="Add Stations, Trains, Routes" style="ellipse;whiteSpace=wrap;html=1;" parent="1" vertex="1">
          <mxGeometry x="-101" y="9" width="140" height="70" as="geometry" />
        </mxCell>
        <mxCell id="Y2NKu34Y8KuRdSmvvcmi-59" value="&amp;lt;&amp;lt;include&amp;gt;&amp;gt;" style="edgeStyle=none;html=1;endArrow=open;verticalAlign=bottom;dashed=1;labelBackgroundColor=none;exitX=0.5;exitY=1;exitDx=0;exitDy=0;" parent="1" source="Y2NKu34Y8KuRdSmvvcmi-7" target="Y2NKu34Y8KuRdSmvvcmi-60" edge="1">
          <mxGeometry width="160" relative="1" as="geometry">
            <mxPoint x="-59" y="340" as="sourcePoint" />
            <mxPoint x="36" y="370" as="targetPoint" />
          </mxGeometry>
        </mxCell>
        <mxCell id="Y2NKu34Y8KuRdSmvvcmi-60" value="Check Payment" style="ellipse;whiteSpace=wrap;html=1;" parent="1" vertex="1">
          <mxGeometry x="-34" y="339.9999999999998" width="140" height="70" as="geometry" />
        </mxCell>
        <mxCell id="Y2NKu34Y8KuRdSmvvcmi-61" value="&lt;div&gt;Update Fares&lt;/div&gt;" style="ellipse;whiteSpace=wrap;html=1;" parent="1" vertex="1">
          <mxGeometry x="79" y="9" width="140" height="70" as="geometry" />
        </mxCell>
        <mxCell id="QPhN8B5RvdQCoUJKxiqJ-2" value="&amp;lt;&amp;lt;include&amp;gt;&amp;gt;" style="edgeStyle=none;html=1;endArrow=open;verticalAlign=bottom;dashed=1;labelBackgroundColor=none;exitX=0;exitY=0.5;exitDx=0;exitDy=0;" edge="1" parent="1" source="Y2NKu34Y8KuRdSmvvcmi-49" target="Y2NKu34Y8KuRdSmvvcmi-60">
          <mxGeometry width="160" relative="1" as="geometry">
            <mxPoint x="46" y="289.9999999999998" as="sourcePoint" />
            <mxPoint x="46" y="349.9999999999998" as="targetPoint" />
          </mxGeometry>
        </mxCell>
        <mxCell id="QPhN8B5RvdQCoUJKxiqJ-4" value="Person" style="shape=umlActor;html=1;verticalLabelPosition=bottom;verticalAlign=top;align=center;" vertex="1" parent="1">
          <mxGeometry x="160" y="-250" width="40" height="80" as="geometry" />
        </mxCell>
        <mxCell id="QPhN8B5RvdQCoUJKxiqJ-5" value="" style="edgeStyle=none;html=1;endArrow=block;endFill=0;endSize=12;verticalAlign=bottom;entryX=0.5;entryY=0.5;entryDx=0;entryDy=0;entryPerimeter=0;exitX=0.5;exitY=0;exitDx=0;exitDy=0;exitPerimeter=0;" edge="1" parent="1" source="Y2NKu34Y8KuRdSmvvcmi-51" target="QPhN8B5RvdQCoUJKxiqJ-4">
          <mxGeometry width="160" relative="1" as="geometry">
            <mxPoint x="114" y="120" as="sourcePoint" />
            <mxPoint x="390" as="targetPoint" />
          </mxGeometry>
        </mxCell>
        <mxCell id="QPhN8B5RvdQCoUJKxiqJ-6" value="" style="edgeStyle=none;html=1;endArrow=block;endFill=0;endSize=12;verticalAlign=bottom;entryX=0.5;entryY=0.5;entryDx=0;entryDy=0;entryPerimeter=0;exitX=0.5;exitY=0;exitDx=0;exitDy=0;exitPerimeter=0;" edge="1" parent="1" source="Y2NKu34Y8KuRdSmvvcmi-18" target="QPhN8B5RvdQCoUJKxiqJ-4">
          <mxGeometry width="160" relative="1" as="geometry">
            <mxPoint x="124" y="130" as="sourcePoint" />
            <mxPoint x="400" y="10" as="targetPoint" />
          </mxGeometry>
        </mxCell>
      </root>
    </mxGraphModel>
  </diagram>
</mxfile>
